<svg width="341.8" height="341.8" xmlns="http://www.w3.org/2000/svg" xmlns:svg="http://www.w3.org/2000/svg">
 <style type="text/css">.st0{fill:#FF4500;}
	.st1{fill:#FFFFFF;}
	.st2{display:none;}
	.st3{display:inline;fill:none;stroke:#D8D8D8;stroke-width:0.5;stroke-miterlimit:10;}</style>
 <g>
  <title>Layer 1</title>
  <g stroke="null" id="Artwork">
   <g stroke="null" id="svg_1">
    <circle stroke="null" id="svg_2" r="170.500002" cy="170.500008" cx="170.500008" class="st0"/>
    <path stroke="null" id="svg_3" d="m284.166676,170.500008c0,-13.759649 -11.167252,-24.926901 -24.926901,-24.926901c-6.780117,0 -12.762573,2.592398 -17.149708,6.979532c-16.950293,-12.164328 -40.481287,-20.140936 -66.405264,-21.138012l11.366667,-53.24386l36.891813,7.777193c0.39883,9.372515 8.176023,16.950293 17.747953,16.950293c9.771345,0 17.747953,-7.976608 17.747953,-17.747953c0,-9.771345 -7.976608,-17.747953 -17.747953,-17.747953c-6.979532,0 -12.961988,3.988304 -15.753801,9.97076l-41.278948,-8.774269c-1.196491,-0.199415 -2.392982,0 -3.390059,0.598246c-0.997076,0.598246 -1.595322,1.595322 -1.994152,2.791813l-12.563158,59.425732c-26.522223,0.797661 -50.252632,8.574854 -67.40234,21.138012c-4.387135,-4.187719 -10.569006,-6.979532 -17.149708,-6.979532c-13.759649,0 -24.926901,11.167252 -24.926901,24.926901c0,10.170176 5.982456,18.745029 14.756725,22.733334c-0.39883,2.392982 -0.598246,4.98538 -0.598246,7.577778c0,38.28772 44.469591,69.197077 99.508188,69.197077s99.508188,-30.909357 99.508188,-69.197077c0,-2.592398 -0.199415,-4.98538 -0.598246,-7.378363c8.176023,-3.988304 14.357895,-12.762573 14.357895,-22.932749zm-170.500002,17.747953c0,-9.771345 7.976608,-17.747953 17.747953,-17.747953c9.771345,0 17.747953,7.976608 17.747953,17.747953c0,9.771345 -7.976608,17.747953 -17.747953,17.747953c-9.771345,0 -17.747953,-7.976608 -17.747953,-17.747953zm99.109358,46.862574c-12.164328,12.164328 -35.296492,12.961988 -42.076609,12.961988c-6.780117,0 -30.111696,-0.997076 -42.076609,-12.961988c-1.794737,-1.794737 -1.794737,-4.785965 0,-6.580702c1.794737,-1.794737 4.785965,-1.794737 6.580702,0c7.577778,7.577778 23.929825,10.369591 35.695322,10.369591s27.918129,-2.791813 35.695322,-10.369591c1.794737,-1.794737 4.785965,-1.794737 6.580702,0c1.395906,1.994152 1.395906,4.785965 -0.39883,6.580702zm-3.190643,-29.11462c-9.771345,0 -17.747953,-7.976608 -17.747953,-17.747953c0,-9.771345 7.976608,-17.747953 17.747953,-17.747953c9.771345,0 17.747953,7.976608 17.747953,17.747953c0,9.771345 -7.976608,17.747953 -17.747953,17.747953z" class="st1"/>
   </g>
  </g>
  <g class="st2" id="Spacing_Guide">
   <rect id="svg_4" height="85.4" width="85.4" class="st3"/>
   <rect id="svg_5" height="85.4" width="341.8" class="st3"/>
   <rect id="svg_6" height="85.4" width="341.8" class="st3" y="256.3"/>
   <rect id="svg_7" height="341.8" width="85.4" class="st3"/>
   <rect id="svg_8" height="341.8" width="85.4" class="st3" x="256.4"/>
  </g>
 </g>
</svg>